# xmcd CD database file
#
# Track frame offsets:
#	150
#	41713
#	70920
#	116050
#	169845
#
# Disc length: 2816 seconds
#
# Revision: 0
# Processed by: cddbd v1.5.2PL0 Copyright (c) Steve Scherf et al.
# Submitted via: CDex 1.79
#
DISCID=430afe05
DTITLE=ART PEPPER LIVE IN TOKYO '79 - BESAMO MUCHO
DYEAR=1979
DGENRE=Jazz
TTITLE0=Red Car
TTITLE1=The Shadow of Your Smile
TTITLE2=The Trip
TTITLE3=Mambo De La Pinta
TTITLE4=Besame Mucho
EXTD=YEAR: 1979
EXTT0=
EXTT1=
EXTT2=
EXTT3=
EXTT4=
PLAYORDER=
